<?xml version="1.0" standalone="no"?><!DOCTYPE svg PUBLIC "-//W3C//DTD SVG 1.1//EN" "http://www.w3.org/Graphics/SVG/1.1/DTD/svg11.dtd"><svg t="1644376320028" class="icon" viewBox="0 0 1024 1024" version="1.1" xmlns="http://www.w3.org/2000/svg" p-id="10193" xmlns:xlink="http://www.w3.org/1999/xlink" width="128" height="128"><defs><style type="text/css"></style></defs><path d="M893.1 397.6c-85.8-286-209.5-352.5-495.5-266.7S45.1 340.4 130.9 626.4s209.5 352.5 495.5 266.7 352.5-209.5 266.7-495.5z m-150 189.9l-50.3 16.3 16.5 50.6c7.7 23.6-5.3 49-28.9 56.7-23.6 7.7-49-5.3-56.7-28.9l-16.5-50.6L506 664.5l16.5 50.6c7.7 23.6-5.3 49-28.9 56.7-23.6 7.7-49-5.3-56.7-28.9l-16.5-50.6-51 16.6c-23.6 7.7-49-5.3-56.7-28.9s5.3-49 28.9-56.7l51-16.6-32.9-101.3-51 16.6c-23.6 7.7-49-5.3-56.7-28.9-7.7-23.6 5.3-49 28.9-56.7l51-16.6-16.5-50.6c-7.7-23.6 5.3-49 28.9-56.7 23.6-7.7 49 5.3 56.7 28.9l16.5 50.6 101.3-32.9-16.5-50.6c-7.7-23.6 5.3-49 28.9-56.7s49 5.3 56.7 28.9l16.5 50.6 50.3-16.3c23.6-7.7 49 5.3 56.7 28.9 7.7 23.6-5.3 49-28.9 56.7L632.1 417 665 518.3l50.3-16.3c23.6-7.7 49 5.3 56.7 28.9 7.7 23.6-5.3 48.9-28.9 56.6z" p-id="10194"></path><path d="M445.262 477.673l101.293-32.909 32.908 101.293-101.292 32.908z" p-id="10195"></path></svg>